<svg width="238" height="208" viewBox="0 0 238 208" fill="none" xmlns="http://www.w3.org/2000/svg">
<path d="M0 91.7148C0 142.289 53.3973 183.43 119.005 183.43C133.512 183.43 147.78 181.384 161.408 177.361L164.304 176.509L197.672 207.346V160.416L199.892 158.823C224.11 141.469 238 117.004 238 91.7148C238 41.146 184.603 -6.10352e-05 119.005 -6.10352e-05C53.3973 -6.10352e-05 0 41.146 0 91.7148Z" fill="#9748FF"/>
<circle cx="119.219" cy="91.9197" r="75.3591" fill="white"/>
<path d="M172.249 69.6899L107.309 141.367L64.5938 101.551L84.5704 71.9313L105.609 107.853L150.23 43.674L172.249 69.6899Z" fill="#9748FF"/>
</svg>
