<svg width="167" height="40" viewBox="0 0 167 40" fill="none" xmlns="http://www.w3.org/2000/svg">
<path d="M156.428 39.8052C154.425 39.8052 152.637 39.5263 151.065 38.9685C149.519 38.436 148.149 37.4725 146.958 36.078L150.153 32.3126C151.091 33.3776 152.067 34.1002 153.081 34.4806C154.095 34.8609 155.224 35.0511 156.466 35.0511C157.379 35.0511 158.228 34.8229 159.014 34.3665C159.8 33.9101 160.422 33.2635 160.878 32.4267C161.36 31.6154 161.601 30.6899 161.601 29.6503V28.7755C161.068 29.6883 160.333 30.4236 159.395 30.9815C158.482 31.5393 157.227 31.8182 155.629 31.8182C153.829 31.8182 152.194 31.3618 150.723 30.449C149.278 29.5362 148.137 28.3191 147.3 26.7978C146.463 25.2511 146.045 23.5269 146.045 21.6252C146.045 19.7236 146.463 17.9994 147.3 16.4527C148.137 14.906 149.278 13.6889 150.723 12.8015C152.194 11.8887 153.829 11.4323 155.629 11.4323C157.277 11.4323 158.558 11.7238 159.471 12.307C160.409 12.8902 161.144 13.6636 161.677 14.6271V11.9267H166.735V29.9546C166.735 31.983 166.291 33.7326 165.404 35.2032C164.542 36.6738 163.337 37.8021 161.791 38.5882C160.244 39.3996 158.457 39.8052 156.428 39.8052ZM156.466 27.1401C158.165 27.1401 159.483 26.6076 160.422 25.5427C161.36 24.4777 161.829 23.1719 161.829 21.6252C161.829 20.0785 161.36 18.7727 160.422 17.7078C159.483 16.6428 158.165 16.1104 156.466 16.1104C154.793 16.1104 153.487 16.6428 152.549 17.7078C151.636 18.7727 151.179 20.0785 151.179 21.6252C151.179 22.6141 151.382 23.5269 151.788 24.3636C152.219 25.2004 152.828 25.8723 153.614 26.3794C154.4 26.8865 155.35 27.1401 156.466 27.1401Z" fill="#141414"/>
<path d="M134.183 32.1987C132.155 32.1987 130.342 31.7296 128.744 30.7914C127.147 29.8533 125.892 28.6108 124.979 27.0641C124.092 25.4921 123.648 23.7552 123.648 21.8535C123.648 19.9519 124.092 18.215 124.979 16.643C125.892 15.0709 127.147 13.8158 128.744 12.8776C130.342 11.9395 132.155 11.4704 134.183 11.4704C136.237 11.4704 138.05 11.9395 139.622 12.8776C141.219 13.8158 142.462 15.0709 143.349 16.643C144.262 18.215 144.718 19.9519 144.718 21.8535C144.718 23.7552 144.262 25.4921 143.349 27.0641C142.462 28.6108 141.219 29.8533 139.622 30.7914C138.05 31.7296 136.237 32.1987 134.183 32.1987ZM134.183 27.5205C135.273 27.5205 136.224 27.267 137.036 26.7599C137.847 26.2274 138.468 25.5301 138.899 24.668C139.356 23.8059 139.584 22.8678 139.584 21.8535C139.584 20.814 139.356 19.8631 138.899 19.001C138.468 18.1389 137.847 17.4543 137.036 16.9472C136.224 16.4148 135.273 16.1485 134.183 16.1485C133.093 16.1485 132.142 16.4148 131.331 16.9472C130.519 17.4543 129.885 18.1389 129.429 19.001C128.998 19.8631 128.782 20.814 128.782 21.8535C128.782 22.8678 128.998 23.8059 129.429 24.668C129.885 25.5301 130.519 26.2274 131.331 26.7599C132.142 27.267 133.093 27.5205 134.183 27.5205Z" fill="#141414"/>
<path d="M116.238 31.7043L116.238 5.271H121.372V31.7043H116.238Z" fill="#141414"/>
<path d="M111.25 31.7042C109.298 31.7042 107.802 31.2225 106.762 30.2589C105.723 29.2954 105.203 27.7361 105.203 25.5808V16.3007H102.426V11.9268H105.203V7.40082H110.337V11.9268H114.521V16.3007H110.337V25.3146C110.337 26.5317 110.87 27.1402 111.935 27.1402H114.065V31.7042H111.25Z" fill="#141414"/>
<path d="M94.4081 32.1985C91.0865 32.1985 88.3481 31.0449 86.1928 28.7375L89.6539 25.5807C91.0991 27.2035 92.6458 28.0149 94.294 28.0149C95.1814 28.0149 95.8533 27.8247 96.3097 27.4444C96.7915 27.0387 97.0324 26.5442 97.0324 25.9611C97.0324 25.6061 96.9436 25.3018 96.7661 25.0482C96.614 24.7947 96.2717 24.5538 95.7392 24.3256C95.2321 24.0974 94.4588 23.8692 93.4192 23.641C91.6443 23.21 90.3258 22.6775 89.4637 22.0436C88.6016 21.4097 88.0311 20.6997 87.7522 19.9137C87.4733 19.1277 87.3338 18.3163 87.3338 17.4796C87.3338 15.7554 87.9804 14.3228 89.2735 13.1818C90.592 12.0154 92.405 11.4323 94.7123 11.4323C96.3097 11.4323 97.6789 11.6731 98.8199 12.1549C99.9609 12.6366 101.039 13.5368 102.053 14.8553L98.3255 17.7078C97.8437 16.9471 97.2986 16.402 96.6901 16.0723C96.1069 15.7427 95.4857 15.5779 94.8264 15.5779C94.1165 15.5779 93.5206 15.7174 93.0388 15.9963C92.5824 16.2752 92.3542 16.7189 92.3542 17.3274C92.3542 17.6571 92.5064 17.9867 92.8106 18.3163C93.1149 18.6206 93.8502 18.9249 95.0166 19.2291C96.9436 19.7109 98.4142 20.2814 99.4285 20.9406C100.443 21.5745 101.14 22.2972 101.52 23.1085C101.901 23.9199 102.091 24.82 102.091 25.8089C102.091 27.026 101.749 28.1163 101.064 29.0798C100.405 30.0433 99.4919 30.804 98.3255 31.3618C97.1845 31.9196 95.8787 32.1985 94.4081 32.1985Z" fill="#141414"/>
<path d="M73.8074 32.1606C72.3874 32.1606 71.107 31.831 69.966 31.1717C68.825 30.5125 67.9249 29.5743 67.2656 28.3572C66.6064 27.1148 66.2767 25.6695 66.2767 24.0214V11.9268H71.4112V22.7663C71.4112 24.4651 71.7536 25.7076 72.4382 26.4936C73.1228 27.2796 74.0989 27.6726 75.3667 27.6726C76.457 27.6726 77.4079 27.2796 78.2192 26.4936C79.056 25.7076 79.4743 24.4651 79.4743 22.7663V11.9268H84.6089V31.7042H79.6265V28.7376C79.1447 29.8786 78.4348 30.7407 77.4966 31.3238C76.5838 31.8817 75.3541 32.1606 73.8074 32.1606Z" fill="#141414"/>
<path d="M55.5234 32.1229C54.4838 32.1229 53.495 32.0342 52.5568 31.8567C51.6187 31.6792 50.8833 31.4257 50.3509 31.096L52.3666 26.7222C52.9245 27.1279 53.7359 27.3307 54.8008 27.3307C55.6882 27.3307 56.4236 27.1152 57.0067 26.6841C57.6153 26.2277 57.9195 25.4797 57.9195 24.4402V5.08112H63.2442V24.6303C63.2442 26.3545 62.9019 27.7744 62.2173 28.8901C61.5581 29.9804 60.6453 30.7918 59.4789 31.3242C58.3379 31.8567 57.0194 32.1229 55.5234 32.1229Z" fill="#141414"/>
<path d="M22.958 0C35.6126 9.91145e-05 45.9131 7.93799 45.9131 17.6934C45.913 22.5719 43.2343 27.2917 38.5625 30.6396L38.1338 30.9463V40L31.6963 34.0508L31.1377 34.2158C28.5087 34.9919 25.7565 35.3867 22.958 35.3867C10.3014 35.3867 0.0001842 27.4497 0 17.6934C0 7.93793 10.3013 0 22.958 0ZM22.999 3.19531C14.97 3.19531 8.46094 9.70437 8.46094 17.7334C8.46116 25.7622 14.9701 32.2705 22.999 32.2705C31.0278 32.2704 37.5369 25.7622 37.5371 17.7334C37.5371 9.70443 31.028 3.19541 22.999 3.19531Z" fill="#141414"/>
<path d="M33.2292 13.444L20.7014 27.2715L12.4609 19.5904L16.3147 13.8764L20.3734 20.8062L28.9814 8.42511L33.2292 13.444Z" fill="#141414"/>
</svg>
